<mxfile host="app.diagrams.net" agent="Mozilla/5.0 (X11; Ubuntu; Linux x86_64; rv:138.0) Gecko/20100101 Firefox/138.0" version="27.0.9">
  <diagram name="Page-1" id="iLq1n37nSjTKs7KS8Nwd">
    <mxGraphModel dx="1426" dy="790" grid="1" gridSize="10" guides="1" tooltips="1" connect="1" arrows="1" fold="1" page="1" pageScale="1" pageWidth="850" pageHeight="1100" math="0" shadow="0">
      <root>
        <mxCell id="0" />
        <mxCell id="1" parent="0" />
        <mxCell id="Y5TGsUWf01zWprKhhNtD-10" style="edgeStyle=orthogonalEdgeStyle;rounded=0;orthogonalLoop=1;jettySize=auto;html=1;exitX=0.5;exitY=1;exitDx=0;exitDy=0;entryX=0.5;entryY=0;entryDx=0;entryDy=0;" edge="1" parent="1" source="Y5TGsUWf01zWprKhhNtD-2" target="Y5TGsUWf01zWprKhhNtD-4">
          <mxGeometry relative="1" as="geometry" />
        </mxCell>
        <mxCell id="Y5TGsUWf01zWprKhhNtD-2" value="Request write lock on bytes 0 to 99" style="rounded=1;whiteSpace=wrap;html=1;fillColor=#f8cecc;strokeColor=#b85450;" vertex="1" parent="1">
          <mxGeometry x="120" y="260" width="120" height="60" as="geometry" />
        </mxCell>
        <mxCell id="Y5TGsUWf01zWprKhhNtD-3" value="&lt;b&gt;Process A&lt;/b&gt;" style="text;html=1;align=center;verticalAlign=middle;whiteSpace=wrap;rounded=0;" vertex="1" parent="1">
          <mxGeometry x="145" y="220" width="70" height="30" as="geometry" />
        </mxCell>
        <mxCell id="Y5TGsUWf01zWprKhhNtD-11" style="edgeStyle=orthogonalEdgeStyle;rounded=0;orthogonalLoop=1;jettySize=auto;html=1;exitX=0.5;exitY=1;exitDx=0;exitDy=0;entryX=0.5;entryY=0;entryDx=0;entryDy=0;" edge="1" parent="1" source="Y5TGsUWf01zWprKhhNtD-4" target="Y5TGsUWf01zWprKhhNtD-5">
          <mxGeometry relative="1" as="geometry" />
        </mxCell>
        <mxCell id="Y5TGsUWf01zWprKhhNtD-4" value="Update bytes 0 to 99" style="rounded=1;whiteSpace=wrap;html=1;fillColor=#ffe6cc;strokeColor=#d79b00;" vertex="1" parent="1">
          <mxGeometry x="120" y="370" width="120" height="60" as="geometry" />
        </mxCell>
        <mxCell id="Y5TGsUWf01zWprKhhNtD-12" style="edgeStyle=orthogonalEdgeStyle;rounded=0;orthogonalLoop=1;jettySize=auto;html=1;exitX=0.5;exitY=1;exitDx=0;exitDy=0;entryX=0.5;entryY=0;entryDx=0;entryDy=0;" edge="1" parent="1" source="Y5TGsUWf01zWprKhhNtD-5" target="Y5TGsUWf01zWprKhhNtD-6">
          <mxGeometry relative="1" as="geometry" />
        </mxCell>
        <mxCell id="Y5TGsUWf01zWprKhhNtD-21" style="edgeStyle=orthogonalEdgeStyle;rounded=0;orthogonalLoop=1;jettySize=auto;html=1;exitX=1;exitY=0.5;exitDx=0;exitDy=0;dashed=1;" edge="1" parent="1" source="Y5TGsUWf01zWprKhhNtD-5">
          <mxGeometry relative="1" as="geometry">
            <mxPoint x="490" y="510" as="targetPoint" />
          </mxGeometry>
        </mxCell>
        <mxCell id="Y5TGsUWf01zWprKhhNtD-5" value="Convert lock on bytes 0 to 99 to read lock" style="rounded=1;whiteSpace=wrap;html=1;fillColor=#d5e8d4;strokeColor=#82b366;" vertex="1" parent="1">
          <mxGeometry x="120" y="480" width="120" height="60" as="geometry" />
        </mxCell>
        <mxCell id="Y5TGsUWf01zWprKhhNtD-13" style="edgeStyle=orthogonalEdgeStyle;rounded=0;orthogonalLoop=1;jettySize=auto;html=1;exitX=0.5;exitY=1;exitDx=0;exitDy=0;entryX=0.5;entryY=0;entryDx=0;entryDy=0;" edge="1" parent="1" source="Y5TGsUWf01zWprKhhNtD-6" target="Y5TGsUWf01zWprKhhNtD-7">
          <mxGeometry relative="1" as="geometry" />
        </mxCell>
        <mxCell id="Y5TGsUWf01zWprKhhNtD-6" value="Read bytes 0 to 99" style="rounded=1;whiteSpace=wrap;html=1;fillColor=#ffe6cc;strokeColor=#d79b00;" vertex="1" parent="1">
          <mxGeometry x="120" y="580" width="120" height="60" as="geometry" />
        </mxCell>
        <mxCell id="Y5TGsUWf01zWprKhhNtD-14" style="edgeStyle=orthogonalEdgeStyle;rounded=0;orthogonalLoop=1;jettySize=auto;html=1;exitX=0.5;exitY=1;exitDx=0;exitDy=0;entryX=0.5;entryY=0;entryDx=0;entryDy=0;" edge="1" parent="1" source="Y5TGsUWf01zWprKhhNtD-7" target="Y5TGsUWf01zWprKhhNtD-8">
          <mxGeometry relative="1" as="geometry" />
        </mxCell>
        <mxCell id="Y5TGsUWf01zWprKhhNtD-7" value="Convert lock on bytes 0 to 99 to write lock" style="rounded=1;whiteSpace=wrap;html=1;fillColor=#f8cecc;strokeColor=#b85450;" vertex="1" parent="1">
          <mxGeometry x="120" y="700" width="120" height="60" as="geometry" />
        </mxCell>
        <mxCell id="Y5TGsUWf01zWprKhhNtD-15" style="edgeStyle=orthogonalEdgeStyle;rounded=0;orthogonalLoop=1;jettySize=auto;html=1;exitX=0.5;exitY=1;exitDx=0;exitDy=0;entryX=0.5;entryY=0;entryDx=0;entryDy=0;" edge="1" parent="1" source="Y5TGsUWf01zWprKhhNtD-8" target="Y5TGsUWf01zWprKhhNtD-9">
          <mxGeometry relative="1" as="geometry" />
        </mxCell>
        <mxCell id="Y5TGsUWf01zWprKhhNtD-8" value="Update bytes 0 to 99" style="rounded=1;whiteSpace=wrap;html=1;fillColor=#ffe6cc;strokeColor=#d79b00;" vertex="1" parent="1">
          <mxGeometry x="120" y="830" width="120" height="60" as="geometry" />
        </mxCell>
        <mxCell id="Y5TGsUWf01zWprKhhNtD-9" value="Unlock bytes 0 to 99" style="rounded=1;whiteSpace=wrap;html=1;fillColor=#ffe6cc;strokeColor=#d79b00;" vertex="1" parent="1">
          <mxGeometry x="120" y="960" width="120" height="60" as="geometry" />
        </mxCell>
        <mxCell id="Y5TGsUWf01zWprKhhNtD-20" style="edgeStyle=orthogonalEdgeStyle;rounded=0;orthogonalLoop=1;jettySize=auto;html=1;exitX=0.5;exitY=1;exitDx=0;exitDy=0;entryX=0.5;entryY=0;entryDx=0;entryDy=0;dashed=1;" edge="1" parent="1" source="Y5TGsUWf01zWprKhhNtD-16" target="Y5TGsUWf01zWprKhhNtD-17">
          <mxGeometry relative="1" as="geometry" />
        </mxCell>
        <mxCell id="Y5TGsUWf01zWprKhhNtD-16" value="Request read lock on bytes 0 to 99" style="rounded=1;whiteSpace=wrap;html=1;fillColor=#e1d5e7;strokeColor=#9673a6;" vertex="1" parent="1">
          <mxGeometry x="430" y="330" width="120" height="60" as="geometry" />
        </mxCell>
        <mxCell id="Y5TGsUWf01zWprKhhNtD-25" style="edgeStyle=orthogonalEdgeStyle;rounded=0;orthogonalLoop=1;jettySize=auto;html=1;exitX=0.5;exitY=1;exitDx=0;exitDy=0;" edge="1" parent="1" source="Y5TGsUWf01zWprKhhNtD-17" target="Y5TGsUWf01zWprKhhNtD-19">
          <mxGeometry relative="1" as="geometry" />
        </mxCell>
        <mxCell id="Y5TGsUWf01zWprKhhNtD-17" value="Read bytes 0 to 99" style="rounded=1;whiteSpace=wrap;html=1;" vertex="1" parent="1">
          <mxGeometry x="430" y="580" width="120" height="60" as="geometry" />
        </mxCell>
        <mxCell id="Y5TGsUWf01zWprKhhNtD-26" style="edgeStyle=orthogonalEdgeStyle;rounded=0;orthogonalLoop=1;jettySize=auto;html=1;exitX=0;exitY=0.5;exitDx=0;exitDy=0;dashed=1;" edge="1" parent="1" source="Y5TGsUWf01zWprKhhNtD-19">
          <mxGeometry relative="1" as="geometry">
            <mxPoint x="180" y="800" as="targetPoint" />
          </mxGeometry>
        </mxCell>
        <mxCell id="Y5TGsUWf01zWprKhhNtD-19" value="Unlock bytes 0 to 99" style="rounded=1;whiteSpace=wrap;html=1;fillColor=#e1d5e7;strokeColor=#9673a6;" vertex="1" parent="1">
          <mxGeometry x="430" y="770" width="120" height="60" as="geometry" />
        </mxCell>
        <mxCell id="Y5TGsUWf01zWprKhhNtD-22" value="&lt;i&gt;unblocks&lt;/i&gt;" style="text;html=1;align=center;verticalAlign=middle;whiteSpace=wrap;rounded=0;" vertex="1" parent="1">
          <mxGeometry x="500" y="495" width="60" height="30" as="geometry" />
        </mxCell>
        <mxCell id="Y5TGsUWf01zWprKhhNtD-23" value="&lt;i&gt;blocks&lt;/i&gt;" style="text;html=1;align=center;verticalAlign=middle;whiteSpace=wrap;rounded=0;" vertex="1" parent="1">
          <mxGeometry x="490" y="400" width="60" height="30" as="geometry" />
        </mxCell>
        <mxCell id="Y5TGsUWf01zWprKhhNtD-24" value="&lt;b&gt;Process B&lt;/b&gt;" style="text;html=1;align=center;verticalAlign=middle;whiteSpace=wrap;rounded=0;" vertex="1" parent="1">
          <mxGeometry x="455" y="290" width="70" height="30" as="geometry" />
        </mxCell>
        <mxCell id="Y5TGsUWf01zWprKhhNtD-27" value="&lt;i&gt;blocks&lt;/i&gt;" style="text;html=1;align=center;verticalAlign=middle;whiteSpace=wrap;rounded=0;" vertex="1" parent="1">
          <mxGeometry x="120" y="760" width="60" height="30" as="geometry" />
        </mxCell>
        <mxCell id="Y5TGsUWf01zWprKhhNtD-28" value="&lt;i&gt;unblocks&lt;/i&gt;" style="text;html=1;align=center;verticalAlign=middle;whiteSpace=wrap;rounded=0;" vertex="1" parent="1">
          <mxGeometry x="120" y="790" width="60" height="30" as="geometry" />
        </mxCell>
        <mxCell id="Y5TGsUWf01zWprKhhNtD-29" value="" style="endArrow=classic;html=1;rounded=0;" edge="1" parent="1">
          <mxGeometry width="50" height="50" relative="1" as="geometry">
            <mxPoint x="700" y="480" as="sourcePoint" />
            <mxPoint x="700" y="650" as="targetPoint" />
          </mxGeometry>
        </mxCell>
        <mxCell id="Y5TGsUWf01zWprKhhNtD-30" value="Time" style="text;html=1;align=center;verticalAlign=middle;whiteSpace=wrap;rounded=0;" vertex="1" parent="1">
          <mxGeometry x="700" y="550" width="60" height="30" as="geometry" />
        </mxCell>
      </root>
    </mxGraphModel>
  </diagram>
</mxfile>
